<svg width="36" height="36" viewBox="0 0 36 36" fill="none" xmlns="http://www.w3.org/2000/svg">
<g id="Group 238861">
<rect id="Rectangle" x="6.10352e-05" width="36" height="36" rx="18" fill="white"/>
<g id="Group 2">
<path id="Rectangle 2" opacity="0.4" d="M8.9855 19.3747C8.9855 13.1716 14.0141 8.14301 20.2172 8.14301C26.4203 8.14301 31.449 13.1716 31.449 19.3747V30.6065H20.2172C14.0141 30.6065 8.9855 25.5779 8.9855 19.3747Z" fill="#5442B6"/>
<path id="Rectangle 2.1" opacity="0.4" d="M4.4928 16.0052C4.4928 9.80212 9.52142 4.7735 15.7245 4.7735C21.9276 4.7735 26.9563 9.80212 26.9563 16.0052C26.9563 22.2083 21.9276 27.237 15.7245 27.237H4.4928V16.0052Z" fill="#5442B6"/>
</g>
<path id="Intersect" opacity="0.71" fill-rule="evenodd" clip-rule="evenodd" d="M24.4929 8.98548C26.0343 10.9083 26.9562 13.3491 26.9562 16.0052C26.9562 22.2083 21.9276 27.2369 15.7245 27.2369H12.1961C10.2101 25.211 8.98547 22.4359 8.98547 19.3747C8.98547 13.1716 14.0141 8.14301 20.2172 8.14301C21.7311 8.14301 23.175 8.4425 24.4929 8.98548Z" fill="#BAB2E9"/>
<g id="Group">
<circle id="Ellipse" cx="12.9166" cy="17.9708" r="1.68476" fill="white"/>
<circle id="Ellipse_2" cx="23.0251" cy="17.9708" r="1.68476" fill="white"/>
<path id="Subtract" fill-rule="evenodd" clip-rule="evenodd" d="M16.2861 17.9708C16.2861 18.9012 17.0404 19.6555 17.9709 19.6555C18.9013 19.6555 19.6556 18.9012 19.6556 17.9708H16.2861Z" fill="white"/>
</g>
</g>
</svg>
