<svg width="167" height="43" viewBox="0 0 167 43" fill="none" xmlns="http://www.w3.org/2000/svg">
<path d="M126.366 4.98285C125.812 4.72114 125.577 4.06312 125.841 3.51346C126.104 2.9638 126.767 2.73038 127.321 2.99209C130.073 4.46829 133.092 3.13623 135.092 1.20136C135.531 0.777783 136.232 0.787325 136.659 1.22282C137.085 1.65832 137.076 2.35485 136.637 2.77842C133.921 5.40574 129.876 6.86763 126.366 4.98285ZM152.736 38.9045C152.151 39.0878 151.527 38.7654 151.343 38.1848C151.158 37.6041 151.483 36.9849 152.067 36.8016C152.072 36.8002 153.657 36.2744 154.713 37.49C155.113 37.9493 155.063 38.6438 154.6 39.0411C154.138 39.4385 153.438 39.3884 153.038 38.929C152.955 38.8333 152.736 38.9041 152.736 38.9041V38.9045ZM151.601 35.9098C151.043 36.1572 150.388 35.9085 150.139 35.354C149.889 34.7996 150.14 34.1494 150.698 33.9017C150.708 33.8972 154.191 32.3328 156.27 34.9993C156.644 35.4798 156.555 36.1708 156.071 36.5419C155.587 36.913 154.891 36.8244 154.517 36.3436C153.51 35.0528 151.606 35.9071 151.601 35.9095L151.601 35.9098ZM149.66 33.5899C149.126 33.885 148.452 33.6941 148.155 33.1632C147.857 32.6327 148.05 31.9631 148.584 31.668C150.159 30.7935 152.222 30.0629 153.854 30.111C155.528 30.1601 157.116 30.4681 158.717 31.916C159.17 32.3253 159.203 33.0218 158.791 33.4716C158.379 33.9214 157.677 33.9542 157.224 33.5449C156.047 32.4803 154.943 32.3423 153.793 32.3086C152.6 32.2735 150.909 32.8968 149.661 33.5899H149.66ZM146.938 31.3217C146.414 31.6359 145.732 31.4679 145.415 30.9469C145.099 30.4259 145.268 29.7484 145.793 29.4342C147.249 28.5602 150.104 26.8447 152.923 26.4259C155.863 25.9891 158.932 26.4845 161.649 29.3903C162.066 29.8353 162.041 30.5318 161.593 30.9459C161.145 31.3599 160.443 31.335 160.026 30.89C157.92 28.6375 155.554 28.2633 153.244 28.6065C150.814 28.9677 148.239 30.5407 146.938 31.3217ZM143.332 28.9105C142.789 29.1913 142.118 28.981 141.835 28.4409C141.552 27.9008 141.764 27.2349 142.308 26.9541C147.722 24.1588 153.036 21.8406 158.03 22.7733C160.164 23.172 162.19 24.3077 164.223 26.1612C164.669 26.5776 164.69 27.2741 164.271 27.7168C163.851 28.1594 163.15 28.1805 162.704 27.7641C161.06 26.3268 159.389 25.4006 157.61 25.0666C152.924 24.1868 147.856 26.443 143.332 28.9108V28.9105ZM119.903 24.7231C119.409 24.3663 119.301 23.6794 119.66 23.189C120.019 22.6986 120.711 22.5909 121.205 22.9477C123.738 24.6945 128.015 25.818 131.215 25.7001C142.278 25.2925 146.715 17.9545 157.623 18.6292C161.126 18.8892 164.197 20.532 166.275 21.9963C166.773 22.3483 166.89 23.0356 166.535 23.5304C166.181 24.0252 165.489 24.1411 164.991 23.7891C163.185 22.517 160.461 21.05 157.458 20.8268C148.205 20.1507 142.65 27.363 132.218 27.9533C128.489 28.1642 123.283 27.1937 119.903 24.7231ZM118.419 19.6474C117.94 19.2692 117.86 18.5764 118.241 18.1003C118.622 17.6243 119.32 17.5452 119.799 17.9238C122.638 20.1592 125.769 21.5925 129.266 21.9118C136.709 22.5913 141.952 18.3944 148.331 15.7334C153.61 13.532 157.847 13.1224 165.23 15.7944C165.805 16.0015 166.102 16.6323 165.894 17.2034C165.685 17.7745 165.05 18.0697 164.475 17.8625C157.912 15.4873 154.025 15.8148 149.259 17.7544C142.313 20.5821 137.355 24.857 129.066 24.1005C125.101 23.7386 121.582 22.1387 118.419 19.6474H118.419ZM118.594 15.9579C118.113 15.5821 118.029 14.8893 118.407 14.4108C118.786 13.9327 119.484 13.8496 119.965 14.2255C123.162 16.724 126.293 17.9194 129.482 18.0421C136.097 18.2969 141.987 13.8326 147.841 11.2615C152.494 9.21858 156.556 8.50092 162.663 10.476C163.245 10.6638 163.564 11.2853 163.375 11.8636C163.185 12.4419 162.56 12.7581 161.977 12.5704C156.548 10.814 152.838 11.4816 148.558 13.3613C142.249 16.1317 136.704 20.5211 129.404 20.24C125.735 20.0986 122.175 18.7573 118.593 15.9579H118.594ZM119.506 12.4487C119.029 12.0681 118.954 11.3753 119.337 10.9016C119.72 10.428 120.418 10.353 120.895 10.7336C123.932 13.1711 126.715 14.1696 129.483 14.2088C134.537 14.281 138.802 11.6591 142.948 9.21415C147.006 6.82162 151.023 4.63492 157.426 4.99239C158.037 5.02578 158.505 5.54477 158.471 6.15168C158.438 6.75858 157.915 7.22339 157.304 7.18999C151.576 6.87035 147.832 8.89587 144.077 11.1098C139.529 13.791 134.998 16.4847 129.456 16.406C126.194 16.3597 122.963 15.2222 119.506 12.4484V12.4487ZM121.208 9.58251C120.734 9.19949 120.662 8.50671 121.048 8.03543C121.434 7.56415 122.131 7.49293 122.606 7.87596C124.345 9.28128 126.189 10.0695 127.997 10.3782C132.868 11.211 137.068 8.33667 141 5.9145C144.064 4.02665 146.947 2.41721 151.476 1.77214C152.082 1.68661 152.643 2.10507 152.729 2.7072C152.816 3.30934 152.394 3.86683 151.788 3.95237C147.711 4.53303 145.016 6.02627 142.163 7.78463C137.652 10.5643 133.213 13.5058 127.623 12.5503C125.462 12.1809 123.266 11.2458 121.208 9.58251H121.208ZM123.508 7.18795C123.01 6.83593 122.893 6.14861 123.248 5.65382C123.602 5.15902 124.294 5.04316 124.792 5.39517C125.923 6.19529 127.125 6.71121 128.339 6.93817C131.924 7.60914 134.872 5.67017 137.723 3.7905C139.653 2.51808 142.034 0.94953 144.506 0.0645585C145.082 -0.139902 145.715 0.156906 145.921 0.728031C146.127 1.29916 145.828 1.92821 145.253 2.13301C143.052 2.92052 140.776 4.42092 138.947 5.62621C135.525 7.88243 132.211 9.90215 127.931 9.10135C126.404 8.81545 124.903 8.17583 123.508 7.18761V7.18795Z" fill="white"/>
<path d="M2.68321 8.45455H4.78548L9.72866 20.5284H9.89912L14.8423 8.45455H16.9446V23H15.2968V11.9489H15.1548L10.6093 23H9.01844L4.47298 11.9489H4.33094V23H2.68321V8.45455ZM20.2489 23V12.0909H21.925V23H20.2489ZM21.1012 10.2727C20.7745 10.2727 20.4927 10.1615 20.256 9.93892C20.024 9.71638 19.908 9.44886 19.908 9.13636C19.908 8.82386 20.024 8.55634 20.256 8.33381C20.4927 8.11127 20.7745 8 21.1012 8C21.4279 8 21.7072 8.11127 21.9392 8.33381C22.176 8.55634 22.2944 8.82386 22.2944 9.13636C22.2944 9.44886 22.176 9.71638 21.9392 9.93892C21.7072 10.1615 21.4279 10.2727 21.1012 10.2727ZM26.6711 16.4375V23H24.995V12.0909H26.6143V13.7955H26.7564C27.012 13.2415 27.4003 12.7964 27.9211 12.4602C28.442 12.1193 29.1143 11.9489 29.9382 11.9489C30.6768 11.9489 31.3231 12.1004 31.8771 12.4034C32.4311 12.7017 32.8619 13.1562 33.1697 13.767C33.4775 14.3731 33.6314 15.1402 33.6314 16.0682V23H31.9552V16.1818C31.9552 15.3248 31.7327 14.6572 31.2876 14.179C30.8425 13.696 30.2317 13.4545 29.4552 13.4545C28.9202 13.4545 28.442 13.5705 28.0206 13.8026C27.6039 14.0346 27.2748 14.3731 27.0334 14.8182C26.7919 15.2633 26.6711 15.803 26.6711 16.4375ZM40.8135 23.2273C39.9044 23.2273 39.1019 22.9976 38.4059 22.5384C37.7098 22.0743 37.1653 21.4209 36.7723 20.5781C36.3793 19.7306 36.1829 18.7292 36.1829 17.5739C36.1829 16.428 36.3793 15.4337 36.7723 14.5909C37.1653 13.7481 37.7122 13.0971 38.413 12.6378C39.1137 12.1785 39.9234 11.9489 40.8419 11.9489C41.5522 11.9489 42.1133 12.0672 42.5252 12.304C42.9418 12.536 43.2591 12.8011 43.4769 13.0994C43.6994 13.393 43.8722 13.6345 43.9954 13.8239H44.1374V8.45455H45.8135V23H44.1942V21.3239H43.9954C43.8722 21.5227 43.6971 21.7737 43.4698 22.0767C43.2425 22.375 42.9182 22.6425 42.4968 22.8793C42.0754 23.1113 41.5143 23.2273 40.8135 23.2273ZM41.0408 21.7216C41.7132 21.7216 42.2813 21.5464 42.7454 21.196C43.2094 20.8409 43.5621 20.3509 43.8036 19.7259C44.0451 19.0961 44.1658 18.3693 44.1658 17.5455C44.1658 16.7311 44.0474 16.0185 43.8107 15.4077C43.574 14.7921 43.2236 14.3139 42.7596 13.973C42.2955 13.6274 41.7226 13.4545 41.0408 13.4545C40.3306 13.4545 39.7387 13.6368 39.2652 14.0014C38.7965 14.3613 38.4437 14.8513 38.207 15.4716C37.975 16.0871 37.859 16.7784 37.859 17.5455C37.859 18.322 37.9774 19.0275 38.2141 19.6619C38.4556 20.2917 38.8107 20.7936 39.2794 21.1676C39.7529 21.5369 40.3401 21.7216 41.0408 21.7216ZM51.9854 23L48.0081 8.45455H49.7979L52.8377 20.3011H52.9797L56.0763 8.45455H58.065L61.1615 20.3011H61.3036L64.3434 8.45455H66.1331L62.1559 23H60.3377L57.1275 11.4091H57.0138L53.8036 23H51.9854ZM71.6587 23.2273C70.6076 23.2273 69.7008 22.9953 68.9385 22.5312C68.181 22.0625 67.5962 21.4091 67.1843 20.571C66.7771 19.7282 66.5735 18.7481 66.5735 17.6307C66.5735 16.5133 66.7771 15.5284 67.1843 14.6761C67.5962 13.8191 68.1691 13.1515 68.903 12.6733C69.6417 12.1903 70.5034 11.9489 71.4883 11.9489C72.0564 11.9489 72.6175 12.0436 73.1715 12.233C73.7255 12.4223 74.2297 12.7301 74.6843 13.1562C75.1388 13.5777 75.501 14.1364 75.7709 14.8324C76.0408 15.5284 76.1758 16.3854 76.1758 17.4034V18.1136H67.7667V16.6648H74.4712C74.4712 16.0492 74.3481 15.5 74.1019 15.017C73.8604 14.5341 73.5148 14.1529 73.065 13.8736C72.6199 13.5942 72.0943 13.4545 71.4883 13.4545C70.8206 13.4545 70.243 13.6203 69.7553 13.9517C69.2723 14.2784 68.9007 14.7045 68.6402 15.2301C68.3798 15.7557 68.2496 16.3191 68.2496 16.9205V17.8864C68.2496 18.7102 68.3917 19.4086 68.6758 19.9815C68.9646 20.5497 69.3647 20.983 69.876 21.2812C70.3874 21.5748 70.9816 21.7216 71.6587 21.7216C72.099 21.7216 72.4968 21.66 72.8519 21.5369C73.2117 21.4091 73.5219 21.2197 73.7823 20.9688C74.0427 20.7131 74.2439 20.3958 74.386 20.017L76.0053 20.4716C75.8348 21.0208 75.5484 21.5038 75.1459 21.9205C74.7435 22.3324 74.2463 22.6544 73.6544 22.8864C73.0626 23.1136 72.3973 23.2273 71.6587 23.2273ZM80.4016 8.45455V23H78.7255V8.45455H80.4016ZM85.1477 8.45455V23H83.4716V8.45455H85.1477ZM89.4392 23.1136C89.0889 23.1136 88.7882 22.9882 88.5373 22.7372C88.2863 22.4863 88.1608 22.1856 88.1608 21.8352C88.1608 21.4848 88.2863 21.1842 88.5373 20.9332C88.7882 20.6823 89.0889 20.5568 89.4392 20.5568C89.7896 20.5568 90.0903 20.6823 90.3412 20.9332C90.5922 21.1842 90.7177 21.4848 90.7177 21.8352C90.7177 22.0672 90.6585 22.2803 90.5401 22.4744C90.4265 22.6686 90.2726 22.8248 90.0784 22.9432C89.8891 23.0568 89.676 23.1136 89.4392 23.1136ZM94.5493 23H92.7027L98.0436 8.45455H99.8618L105.203 23H103.356L99.0096 10.7557H98.8959L94.5493 23ZM95.2311 17.3182H102.674V18.8807H95.2311V17.3182ZM109.23 8.45455V23H107.468V8.45455H109.23Z" fill="white"/>
</svg>
