<svg width="24" height="24" viewBox="0 0 24 24" fill="none" xmlns="http://www.w3.org/2000/svg">
<g id="vuesax/bold/send">
<g id="send">
<path id="Vector" d="M18.07 8.51L9.51005 4.23C3.76005 1.35 1.40005 3.71 4.28005 9.46L5.15005 11.2C5.40005 11.71 5.40005 12.3 5.15005 12.81L4.28005 14.54C1.40005 20.29 3.75005 22.65 9.51005 19.77L18.07 15.49C21.91 13.57 21.91 10.43 18.07 8.51ZM14.84 12.75H9.44005C9.03005 12.75 8.69005 12.41 8.69005 12C8.69005 11.59 9.03005 11.25 9.44005 11.25H14.84C15.25 11.25 15.59 11.59 15.59 12C15.59 12.41 15.25 12.75 14.84 12.75Z" fill="#5D5FEF"/>
</g>
</g>
</svg>
